# xmcd
#
# Track frame offsets: 
#        150
#        19500
#        36494
#        50671
#        63550
#        73799
#        84901
#        101852
#        121796
#        133956
#        150318
#        163784
#        184018
#        204935
#        218566
#        234301
#        258338
#        272123
#        288185
#        305702
#        321406
#        346676
#        362808
#
# Disc length: 5038 seconds
#
# Revision: 1
# Processed by: cddbd v1.5.2PL0 Copyright (c) Steve Scherf et al.
# Submitted via: ExactAudioCopy v1.0b3
#
DISCID=5513ac17
DTITLE=Various Artist - Der Jazz in Deutschland, Volume 3
DYEAR=2008
DGENRE=Jazz
TTITLE0=Die Dixie Maximators - Muskrat ramble
TTITLE1=Two Beat Stompers - Tin roof blues
TTITLE2=Magnolia Jazz Band - Sweet Georgia Brown
TTITLE3=Darktown Stompers - Apex blues
TTITLE4=The Woodhouse Stompers - Dippermouth Blue
TTITLE5=Oimel Jazz Youngsters - I wish I could shimmy like my sister K
TTITLE5=ate
TTITLE6=Wild Bill Davison - Spree City Stompers - Royal garden blues
TTITLE7=James W. Parks - Bucktown Six - 2:19 blues
TTITLE8=Riverside Jazz Band - Black bottom stomp
TTITLE9=Blue Washboard Five - Weary blues
TTITLE10=Old Heidetown Ramblers - Pass out lightly (There ain't nothin
TTITLE10=' to it)
TTITLE11=Riverboat Seven - New Orleans
TTITLE12=Wild Bill Davison - The Feetwarmers - Sweet Sue - just you
TTITLE13=Old Merry Tale Jazzband - Am Sonntag will mein Süßer mit mir 
TTITLE13=segeln geh'n
TTITLE14=Hot Dogs - Die alten Rittersleut
TTITLE15=Barrelhouse Jazzband - Heebie Jeebies
TTITLE16=Jenaer Oldtimers - High society
TTITLE17=Dixieland All-Stars Berlin - Just a closer walk with thee
TTITLE18=Old Time Memory Jazz Band - St. James infirmary
TTITLE19=Papa Binne's Jazz Band - China boy (go sleep)
TTITLE20=Jenaer Dixieland Stompers - Bertchens Blues
TTITLE21=Elb Meadow Ramblers - I've found a new baby
TTITLE22=Uni-Jazz-Band Halle - Savoy blues
EXTD=YEAR: 2008
EXTT0=
EXTT1=
EXTT2=
EXTT3=
EXTT4=
EXTT5=
EXTT6=
EXTT7=
EXTT8=
EXTT9=
EXTT10=
EXTT11=
EXTT12=
EXTT13=
EXTT14=
EXTT15=
EXTT16=
EXTT17=
EXTT18=
EXTT19=
EXTT20=
EXTT21=
EXTT22=
PLAYORDER=
